<svg xmlns="http://www.w3.org/2000/svg" viewBox="0 0 750 1125" width="750" height="1125" preserveAspectRatio="xMidYMid meet" style="width: 100%; height: 100%; transform: translate3d(0px, 0px, 0px);"><defs><clipPath id="__lottie_element_1393"><rect width="750" height="1125" x="0" y="0"></rect></clipPath><clipPath id="__lottie_element_1395"><path d="M0,0 L321,0 L321,295 L0,295z"></path></clipPath><mask id="__lottie_element_1424" mask-type="alpha"><g transform="matrix(1,0.000004937356607115362,-0.000004937356607115362,1,207.13027954101562,208.73922729492188)" opacity="1" style="display: block;"><g opacity="1" transform="matrix(1,0,0,1,0,0)"><path fill="rgb(255,188,0)" fill-opacity="1" d=" M-7.874000072479248,-58.5 C-10.081000328063965,-58.5 -11.869999885559082,-56.71099853515625 -11.869999885559082,-54.50400161743164 C-11.869999885559082,-54.50400161743164 -11.869999885559082,54.50400161743164 -11.869999885559082,54.50400161743164 C-11.869999885559082,56.71099853515625 -10.081000328063965,58.5 -7.874000072479248,58.5 C-7.874000072479248,58.5 7.874000072479248,58.5 7.874000072479248,58.5 C10.081000328063965,58.5 11.869999885559082,56.71099853515625 11.869999885559082,54.50400161743164 C11.869999885559082,54.50400161743164 11.869999885559082,-54.50400161743164 11.869999885559082,-54.50400161743164 C11.869999885559082,-56.71099853515625 10.081000328063965,-58.5 7.874000072479248,-58.5 C7.874000072479248,-58.5 -7.874000072479248,-58.5 -7.874000072479248,-58.5z"></path></g></g></mask><mask id="__lottie_element_1428" mask-type="alpha"><g transform="matrix(1,0.000004937356607115362,-0.000004937356607115362,1,113.87028503417969,208.73876953125)" opacity="1" style="display: block;"><g opacity="1" transform="matrix(1,0,0,1,0,0)"><path fill="rgb(255,188,0)" fill-opacity="1" d=" M-7.874000072479248,-58.5 C-10.081000328063965,-58.5 -11.869999885559082,-56.71099853515625 -11.869999885559082,-54.50400161743164 C-11.869999885559082,-54.50400161743164 -11.869999885559082,54.50400161743164 -11.869999885559082,54.50400161743164 C-11.869999885559082,56.71099853515625 -10.081000328063965,58.5 -7.874000072479248,58.5 C-7.874000072479248,58.5 7.874000072479248,58.5 7.874000072479248,58.5 C10.081000328063965,58.5 11.869999885559082,56.71099853515625 11.869999885559082,54.50400161743164 C11.869999885559082,54.50400161743164 11.869999885559082,-54.50400161743164 11.869999885559082,-54.50400161743164 C11.869999885559082,-56.71099853515625 10.081000328063965,-58.5 7.874000072479248,-58.5 C7.874000072479248,-58.5 -7.874000072479248,-58.5 -7.874000072479248,-58.5z"></path></g></g></mask><mask id="__lottie_element_1432" mask-type="alpha"><g transform="matrix(1,0.000004937356607115362,-0.000004937356607115362,1,113.87028503417969,208.73876953125)" opacity="1" style="display: block;"><g opacity="1" transform="matrix(1,0,0,1,0,0)"><path fill="rgb(255,188,0)" fill-opacity="1" d=" M-7.874000072479248,-58.5 C-10.081000328063965,-58.5 -11.869999885559082,-56.71099853515625 -11.869999885559082,-54.50400161743164 C-11.869999885559082,-54.50400161743164 -11.869999885559082,54.50400161743164 -11.869999885559082,54.50400161743164 C-11.869999885559082,56.71099853515625 -10.081000328063965,58.5 -7.874000072479248,58.5 C-7.874000072479248,58.5 7.874000072479248,58.5 7.874000072479248,58.5 C10.081000328063965,58.5 11.869999885559082,56.71099853515625 11.869999885559082,54.50400161743164 C11.869999885559082,54.50400161743164 11.869999885559082,-54.50400161743164 11.869999885559082,-54.50400161743164 C11.869999885559082,-56.71099853515625 10.081000328063965,-58.5 7.874000072479248,-58.5 C7.874000072479248,-58.5 -7.874000072479248,-58.5 -7.874000072479248,-58.5z"></path></g></g></mask><mask id="__lottie_element_1444" mask-type="alpha"><g transform="matrix(1,0.000004937356607115362,-0.000004937356607115362,1,159.6520233154297,261.3039855957031)" opacity="1" style="display: block;"><g opacity="1" transform="matrix(1,0,0,1,0,0)"><path fill="rgb(255,188,0)" fill-opacity="1" d=" M40.69599914550781,-5.934999942779541 C40.69599914550781,-5.934999942779541 -40.69599914550781,-5.934999942779541 -40.69599914550781,-5.934999942779541 C-40.69599914550781,-5.934999942779541 -40.69599914550781,5.934999942779541 -40.69599914550781,5.934999942779541 C-40.69599914550781,5.934999942779541 40.69599914550781,5.934999942779541 40.69599914550781,5.934999942779541 C40.69599914550781,5.934999942779541 40.69599914550781,-5.934999942779541 40.69599914550781,-5.934999942779541z"></path></g></g></mask></defs><g clip-path="url(#__lottie_element_1393)"><g clip-path="url(#__lottie_element_1395)" transform="matrix(2.364490032196045,0,0,2.364490032196045,-4.500640869140625,-81.26226806640625)" opacity="1" style="display: block;"><g transform="matrix(1,0.000004937356607115362,-0.000004937356607115362,1,160.50013732910156,238.41299438476562)" opacity="1" style="display: block;"><g opacity="1" transform="matrix(1,0,0,1,0,0)"><path fill="rgb(170,87,42)" fill-opacity="1" d=" M53.41299819946289,-28.826000213623047 C53.41299819946289,-28.826000213623047 -53.41299819946289,-28.826000213623047 -53.41299819946289,-28.826000213623047 C-53.41299819946289,-28.826000213623047 -53.41299819946289,28.826000213623047 -53.41299819946289,28.826000213623047 C-53.41299819946289,28.826000213623047 53.41299819946289,28.826000213623047 53.41299819946289,28.826000213623047 C53.41299819946289,28.826000213623047 53.41299819946289,-28.826000213623047 53.41299819946289,-28.826000213623047z"></path></g></g><g transform="matrix(1,0.000004937356607115362,-0.000004937356607115362,1,157.10910034179688,246.04296875)" opacity="1" style="display: block;"><g opacity="1" transform="matrix(1,0,0,1,0,0)"><path stroke-linecap="butt" stroke-linejoin="miter" fill-opacity="0" stroke-miterlimit="4" stroke="rgb(143,71,32)" stroke-opacity="1" stroke-width="3.996" d=" M38.92900085449219,0 C38.92900085449219,0 -38.85200119018555,0 -38.85200119018555,0"></path></g></g><g transform="matrix(1,0.000004937356607115362,-0.000004937356607115362,1,159.6520233154297,261.3039855957031)" opacity="1" style="display: block;"><g opacity="1" transform="matrix(1,0,0,1,0,0)"><path fill="rgb(255,188,0)" fill-opacity="1" d=" M40.69599914550781,-5.934999942779541 C40.69599914550781,-5.934999942779541 -40.69599914550781,-5.934999942779541 -40.69599914550781,-5.934999942779541 C-40.69599914550781,-5.934999942779541 -40.69599914550781,5.934999942779541 -40.69599914550781,5.934999942779541 C-40.69599914550781,5.934999942779541 40.69599914550781,5.934999942779541 40.69599914550781,5.934999942779541 C40.69599914550781,5.934999942779541 40.69599914550781,-5.934999942779541 40.69599914550781,-5.934999942779541z"></path></g></g><g mask="url(#__lottie_element_1444)" style="display: block;"><g transform="matrix(1,0.000004937356607115362,-0.000004937356607115362,1,145.23898315429688,270.6299133300781)" opacity="1"><g opacity="1" transform="matrix(1,0,0,1,0,0)"><path fill="rgb(255,211,0)" fill-opacity="1" d=" M55.75400161743164,-18.584999084472656 C55.75400161743164,-18.584999084472656 18.584999084472656,-55.75400161743164 18.584999084472656,-55.75400161743164 C18.584999084472656,-55.75400161743164 -55.75400161743164,18.584999084472656 -55.75400161743164,18.584999084472656 C-55.75400161743164,18.584999084472656 -18.584999084472656,55.75400161743164 -18.584999084472656,55.75400161743164 C-18.584999084472656,55.75400161743164 55.75400161743164,-18.584999084472656 55.75400161743164,-18.584999084472656z"></path></g></g></g><g transform="matrix(1,0.000004937356607115362,-0.000004937356607115362,1,159.6523895263672,189.23898315429688)" opacity="1" style="display: block;"><g opacity="1" transform="matrix(1,0,0,1,0,0)"><path fill="rgb(170,87,42)" fill-opacity="1" d=" M50,-32.21699905395508 C50,-32.21699905395508 -50.000999450683594,-32.21699905395508 -50.000999450683594,-32.21699905395508 C-53.290000915527344,-32.21699905395508 -55.957000732421875,-29.555999755859375 -55.957000732421875,-26.273000717163086 C-55.957000732421875,-26.273000717163086 -55.957000732421875,26.273000717163086 -55.957000732421875,26.273000717163086 C-55.957000732421875,29.555999755859375 -53.290000915527344,32.21699905395508 -50.000999450683594,32.21699905395508 C-50.000999450683594,32.21699905395508 50,32.21699905395508 50,32.21699905395508 C53.28900146484375,32.21699905395508 55.95600128173828,29.555999755859375 55.95600128173828,26.273000717163086 C55.95600128173828,26.273000717163086 55.95600128173828,-26.273000717163086 55.95600128173828,-26.273000717163086 C55.95600128173828,-29.555999755859375 53.28900146484375,-32.21699905395508 50,-32.21699905395508z"></path></g></g><g transform="matrix(1,0.000004937356607115362,-0.000004937356607115362,1,159.65249633789062,167.1949920654297)" opacity="1" style="display: block;"><g opacity="1" transform="matrix(1,0,0,1,0,0)"><path fill="rgb(143,71,32)" fill-opacity="1" d=" M-40.69599914550781,-1.6959999799728394 C-40.69599914550781,-1.6959999799728394 -40.69599914550781,1.6959999799728394 -40.69599914550781,1.6959999799728394 C-40.69599914550781,1.6959999799728394 40.69599914550781,1.6959999799728394 40.69599914550781,1.6959999799728394 C40.69599914550781,1.6959999799728394 40.69599914550781,-1.6959999799728394 40.69599914550781,-1.6959999799728394 C40.69599914550781,-1.6959999799728394 -40.69599914550781,-1.6959999799728394 -40.69599914550781,-1.6959999799728394z"></path></g></g><g transform="matrix(1,0.000004937356607115362,-0.000004937356607115362,1,159.65237426757812,190.9349822998047)" opacity="1" style="display: block;"><g opacity="1" transform="matrix(1,0,0,1,0,0)"><path fill="rgb(143,71,32)" fill-opacity="1" d=" M-40.69599914550781,-1.6959999799728394 C-40.69599914550781,-1.6959999799728394 -40.69599914550781,1.6959999799728394 -40.69599914550781,1.6959999799728394 C-40.69599914550781,1.6959999799728394 40.69599914550781,1.6959999799728394 40.69599914550781,1.6959999799728394 C40.69599914550781,1.6959999799728394 40.69599914550781,-1.6959999799728394 40.69599914550781,-1.6959999799728394 C40.69599914550781,-1.6959999799728394 -40.69599914550781,-1.6959999799728394 -40.69599914550781,-1.6959999799728394z"></path></g></g><g transform="matrix(1,0.000004937356607115362,-0.000004937356607115362,1,157.10922241210938,222.3049774169922)" opacity="1" style="display: block;"><g opacity="1" transform="matrix(1,0,0,1,0,0)"><path stroke-linecap="butt" stroke-linejoin="miter" fill-opacity="0" stroke-miterlimit="4" stroke="rgb(143,71,32)" stroke-opacity="1" stroke-width="3.996" d=" M38.92900085449219,0 C38.92900085449219,0 -38.85200119018555,0 -38.85200119018555,0"></path></g></g><g transform="matrix(1,0.000004937356607115362,-0.000004937356607115362,1,158.43324279785156,217.21697998046875)" opacity="1" style="display: block;"><g opacity="1" transform="matrix(1,0,0,1,0,0)"><path fill="rgb(255,188,0)" fill-opacity="1" d=" M50.86899948120117,-11.022000312805176 C50.86899948120117,-11.022000312805176 -50.869998931884766,-11.022000312805176 -50.869998931884766,-11.022000312805176 C-50.869998931884766,-11.022000312805176 -50.869998931884766,11.022000312805176 -50.869998931884766,11.022000312805176 C-50.869998931884766,11.022000312805176 50.86899948120117,11.022000312805176 50.86899948120117,11.022000312805176 C50.86899948120117,11.022000312805176 50.86899948120117,-11.022000312805176 50.86899948120117,-11.022000312805176z"></path></g></g><g transform="matrix(1,0.000004937356607115362,-0.000004937356607115362,1,113.87028503417969,208.73876953125)" opacity="1" style="display: block;"><g opacity="1" transform="matrix(1,0,0,1,0,0)"><path fill="rgb(255,188,0)" fill-opacity="1" d=" M-7.874000072479248,-58.5 C-10.081000328063965,-58.5 -11.869999885559082,-56.71099853515625 -11.869999885559082,-54.50400161743164 C-11.869999885559082,-54.50400161743164 -11.869999885559082,54.50400161743164 -11.869999885559082,54.50400161743164 C-11.869999885559082,56.71099853515625 -10.081000328063965,58.5 -7.874000072479248,58.5 C-7.874000072479248,58.5 7.874000072479248,58.5 7.874000072479248,58.5 C10.081000328063965,58.5 11.869999885559082,56.71099853515625 11.869999885559082,54.50400161743164 C11.869999885559082,54.50400161743164 11.869999885559082,-54.50400161743164 11.869999885559082,-54.50400161743164 C11.869999885559082,-56.71099853515625 10.081000328063965,-58.5 7.874000072479248,-58.5 C7.874000072479248,-58.5 -7.874000072479248,-58.5 -7.874000072479248,-58.5z"></path></g></g><g mask="url(#__lottie_element_1432)" style="display: block;"><g transform="matrix(1,0.000004937356607115362,-0.000004937356607115362,1,116.66935729980469,193.60877990722656)" opacity="1"><g opacity="1" transform="matrix(1,0,0,1,0,0)"><path fill="rgb(255,211,0)" fill-opacity="1" d=" M23.482999801635742,-47.60900115966797 C23.482999801635742,-47.60900115966797 -47.60900115966797,23.482999801635742 -47.60900115966797,23.482999801635742 C-47.60900115966797,23.482999801635742 -23.482999801635742,47.60900115966797 -23.482999801635742,47.60900115966797 C-23.482999801635742,47.60900115966797 47.60900115966797,-23.482999801635742 47.60900115966797,-23.482999801635742 C47.60900115966797,-23.482999801635742 23.482999801635742,-47.60900115966797 23.482999801635742,-47.60900115966797z"></path></g></g></g><g mask="url(#__lottie_element_1428)" style="display: block;"><g transform="matrix(1,0.000004937356607115362,-0.000004937356607115362,1,109.91294860839844,276.61474609375)" opacity="1"><g opacity="1" transform="matrix(1,0,0,1,0,0)"><path fill="rgb(255,211,0)" fill-opacity="1" d=" M16.726999282836914,-30.83300018310547 C16.726999282836914,-30.83300018310547 -30.83300018310547,16.726999282836914 -30.83300018310547,16.726999282836914 C-30.83300018310547,16.726999282836914 -16.726999282836914,30.83300018310547 -16.726999282836914,30.83300018310547 C-16.726999282836914,30.83300018310547 30.83300018310547,-16.726999282836914 30.83300018310547,-16.726999282836914 C30.83300018310547,-16.726999282836914 16.726999282836914,-30.83300018310547 16.726999282836914,-30.83300018310547z"></path></g></g></g><g transform="matrix(1,0.000004937356607115362,-0.000004937356607115362,1,207.13027954101562,208.73922729492188)" opacity="1" style="display: block;"><g opacity="1" transform="matrix(1,0,0,1,0,0)"><path fill="rgb(255,188,0)" fill-opacity="1" d=" M-7.874000072479248,-58.5 C-10.081000328063965,-58.5 -11.869999885559082,-56.71099853515625 -11.869999885559082,-54.50400161743164 C-11.869999885559082,-54.50400161743164 -11.869999885559082,54.50400161743164 -11.869999885559082,54.50400161743164 C-11.869999885559082,56.71099853515625 -10.081000328063965,58.5 -7.874000072479248,58.5 C-7.874000072479248,58.5 7.874000072479248,58.5 7.874000072479248,58.5 C10.081000328063965,58.5 11.869999885559082,56.71099853515625 11.869999885559082,54.50400161743164 C11.869999885559082,54.50400161743164 11.869999885559082,-54.50400161743164 11.869999885559082,-54.50400161743164 C11.869999885559082,-56.71099853515625 10.081000328063965,-58.5 7.874000072479248,-58.5 C7.874000072479248,-58.5 -7.874000072479248,-58.5 -7.874000072479248,-58.5z"></path></g></g><g mask="url(#__lottie_element_1424)" style="display: block;"><g transform="matrix(1,0.000004937356607115362,-0.000004937356607115362,1,205.80026245117188,212.97021484375)" opacity="1"><g opacity="1" transform="matrix(1,0,0,1,0,0)"><path fill="rgb(255,211,0)" fill-opacity="1" d=" M15.45199966430664,-49.72200012207031 C15.45199966430664,-49.72200012207031 -49.72200012207031,15.45199966430664 -49.72200012207031,15.45199966430664 C-49.72200012207031,15.45199966430664 -15.45199966430664,49.72200012207031 -15.45199966430664,49.72200012207031 C-15.45199966430664,49.72200012207031 49.72200012207031,-15.45199966430664 49.72200012207031,-15.45199966430664 C49.72200012207031,-15.45199966430664 15.45199966430664,-49.72200012207031 15.45199966430664,-49.72200012207031z"></path></g></g></g><g transform="matrix(1,0.000004937356607115362,-0.000004937356607115362,1,160.500244140625,218.91299438476562)" opacity="1" style="display: block;"><g opacity="1" transform="matrix(1,0,0,1,0,0)"><path fill="rgb(255,188,0)" fill-opacity="1" d=" M-12.11299991607666,-19.5 C-14.319999694824219,-19.5 -16.108999252319336,-17.711000442504883 -16.108999252319336,-15.503999710083008 C-16.108999252319336,-15.503999710083008 -16.108999252319336,15.503999710083008 -16.108999252319336,15.503999710083008 C-16.108999252319336,17.711000442504883 -14.319999694824219,19.5 -12.11299991607666,19.5 C-12.11299991607666,19.5 12.11299991607666,19.5 12.11299991607666,19.5 C14.319999694824219,19.5 16.108999252319336,17.711000442504883 16.108999252319336,15.503999710083008 C16.108999252319336,15.503999710083008 16.108999252319336,-15.503999710083008 16.108999252319336,-15.503999710083008 C16.108999252319336,-17.711000442504883 14.319999694824219,-19.5 12.11299991607666,-19.5 C12.11299991607666,-19.5 -12.11299991607666,-19.5 -12.11299991607666,-19.5z"></path></g></g><g transform="matrix(1,0.000004937356607115362,-0.000004937356607115362,1,160.50025939941406,214.10899353027344)" opacity="1" style="display: block;"><g opacity="1" transform="matrix(1,0,0,1,0,0)"><path fill="rgb(218,132,0)" fill-opacity="1" d=" M7.630000114440918,0 C7.630000114440918,4.369999885559082 4.214000225067139,7.913000106811523 0,7.913000106811523 C-4.214000225067139,7.913000106811523 -7.630000114440918,4.369999885559082 -7.630000114440918,0 C-7.630000114440918,-4.369999885559082 -4.214000225067139,-7.913000106811523 0,-7.913000106811523 C4.214000225067139,-7.913000106811523 7.630000114440918,-4.369999885559082 7.630000114440918,0z"></path></g></g><g transform="matrix(1,0.000004937356607115362,-0.000004937356607115362,1,160.42820739746094,226.24099731445312)" opacity="1" style="display: block;"><g opacity="1" transform="matrix(1,0,0,1,0,0)"><path fill="rgb(218,132,0)" fill-opacity="1" d=" M6.5229997634887695,1.2369999885559082 C5.834000110626221,-0.7260000109672546 5.210000038146973,-5.599999904632568 3.6470000743865967,-6.392000198364258 C1.2339999675750732,-7.613999843597412 -1.6790000200271606,-7.991000175476074 -4.019000053405762,-5.869999885559082 C-5.079999923706055,-4.908999919891357 -5.6539998054504395,-0.33399999141693115 -6.210000038146973,1.2510000467300415 C-6.63100004196167,2.450000047683716 -5.741000175476074,3.7060000896453857 -4.46999979019165,3.7060000896453857 C-4.46999979019165,3.7060000896453857 4.7829999923706055,3.691999912261963 4.7829999923706055,3.691999912261963 C6.053999900817871,3.691999912261963 6.943999767303467,2.436000108718872 6.5229997634887695,1.2369999885559082z"></path></g></g><g transform="matrix(1,0.000004937356607115362,-0.000004937356607115362,1,113.02224731445312,217.21676635742188)" opacity="1" style="display: block;"><g opacity="1" transform="matrix(1,0,0,1,0,0)"><path fill="rgb(248,162,1)" fill-opacity="1" d=" M4.238999843597412,0 C4.238999843597412,2.3410000801086426 2.3410000801086426,4.238999843597412 0,4.238999843597412 C-2.3410000801086426,4.238999843597412 -4.238999843597412,2.3410000801086426 -4.238999843597412,0 C-4.238999843597412,-2.3410000801086426 -2.3410000801086426,-4.238999843597412 0,-4.238999843597412 C2.3410000801086426,-4.238999843597412 4.238999843597412,-2.3410000801086426 4.238999843597412,0z"></path></g></g><g transform="matrix(1,0.000004937356607115362,-0.000004937356607115362,1,113.02206420898438,254.52175903320312)" opacity="1" style="display: block;"><g opacity="1" transform="matrix(1,0,0,1,0,0)"><path fill="rgb(248,162,1)" fill-opacity="1" d=" M4.238999843597412,0 C4.238999843597412,2.3410000801086426 2.3410000801086426,4.238999843597412 0,4.238999843597412 C-2.3410000801086426,4.238999843597412 -4.238999843597412,2.3410000801086426 -4.238999843597412,0 C-4.238999843597412,-2.3410000801086426 -2.3410000801086426,-4.238999843597412 0,-4.238999843597412 C2.3410000801086426,-4.238999843597412 4.238999843597412,-2.3410000801086426 4.238999843597412,0z"></path></g></g><g transform="matrix(1,0.000004937356607115362,-0.000004937356607115362,1,207.97805786132812,254.52223205566406)" opacity="1" style="display: block;"><g opacity="1" transform="matrix(1,0,0,1,0,0)"><path fill="rgb(248,162,1)" fill-opacity="1" d=" M4.238999843597412,0 C4.238999843597412,2.3410000801086426 2.3410000801086426,4.238999843597412 0,4.238999843597412 C-2.3410000801086426,4.238999843597412 -4.238999843597412,2.3410000801086426 -4.238999843597412,0 C-4.238999843597412,-2.3410000801086426 -2.3410000801086426,-4.238999843597412 0,-4.238999843597412 C2.3410000801086426,-4.238999843597412 4.238999843597412,-2.3410000801086426 4.238999843597412,0z"></path></g></g><g transform="matrix(1,0.000004937356607115362,-0.000004937356607115362,1,207.97824096679688,217.21722412109375)" opacity="1" style="display: block;"><g opacity="1" transform="matrix(1,0,0,1,0,0)"><path fill="rgb(248,162,1)" fill-opacity="1" d=" M4.238999843597412,0 C4.238999843597412,2.3410000801086426 2.3410000801086426,4.238999843597412 0,4.238999843597412 C-2.3410000801086426,4.238999843597412 -4.238999843597412,2.3410000801086426 -4.238999843597412,0 C-4.238999843597412,-2.3410000801086426 -2.3410000801086426,-4.238999843597412 0,-4.238999843597412 C2.3410000801086426,-4.238999843597412 4.238999843597412,-2.3410000801086426 4.238999843597412,0z"></path></g></g><g transform="matrix(1,0.000004937356607115362,-0.000004937356607115362,1,113.02243041992188,179.9127655029297)" opacity="1" style="display: block;"><g opacity="1" transform="matrix(1,0,0,1,0,0)"><path fill="rgb(248,162,1)" fill-opacity="1" d=" M4.238999843597412,0 C4.238999843597412,2.3410000801086426 2.3410000801086426,4.238999843597412 0,4.238999843597412 C-2.3410000801086426,4.238999843597412 -4.238999843597412,2.3410000801086426 -4.238999843597412,0 C-4.238999843597412,-2.3410000801086426 -2.3410000801086426,-4.238999843597412 0,-4.238999843597412 C2.3410000801086426,-4.238999843597412 4.238999843597412,-2.3410000801086426 4.238999843597412,0z"></path></g></g><g transform="matrix(1,0.000004937356607115362,-0.000004937356607115362,1,207.97842407226562,179.91322326660156)" opacity="1" style="display: block;"><g opacity="1" transform="matrix(1,0,0,1,0,0)"><path fill="rgb(248,162,1)" fill-opacity="1" d=" M4.238999843597412,0 C4.238999843597412,2.3410000801086426 2.3410000801086426,4.238999843597412 0,4.238999843597412 C-2.3410000801086426,4.238999843597412 -4.238999843597412,2.3410000801086426 -4.238999843597412,0 C-4.238999843597412,-2.3410000801086426 -2.3410000801086426,-4.238999843597412 0,-4.238999843597412 C2.3410000801086426,-4.238999843597412 4.238999843597412,-2.3410000801086426 4.238999843597412,0z"></path></g></g></g></g></svg>